<svg xmlns="http://www.w3.org/2000/svg" xmlns:xlink="http://www.w3.org/1999/xlink" id="Capa_1" width="24.531" height="24.5" x="0" y="0" fill="currentColor" enable-background="new 0 0 24.531 24.5" version="1.1" viewBox="0 0 24.531 24.5" xml:space="preserve"><path d="M12.265,1.438c-5.972,0-10.812,4.841-10.812,10.812s4.841,10.812,10.812,10.812s10.812-4.841,10.812-10.812	S18.237,1.438,12.265,1.438z M9.626,13.055l5.75,5.805c0.215,0.201,0.303,0.504,0.229,0.789c-0.074,0.283-0.299,0.506-0.584,0.578	c-0.285,0.07-0.58-0.021-0.781-0.238l-7.105-7.174c-0.312-0.315-0.312-0.819,0-1.133l7.107-7.175	c0.199-0.215,0.496-0.304,0.779-0.233c0.287,0.072,0.512,0.293,0.584,0.578c0.074,0.285-0.014,0.587-0.227,0.788l-5.75,5.805	c0,0-0.545,0.514-0.545,0.846C9.083,12.624,9.626,13.055,9.626,13.055z"/></svg>